<svg id="Camada_1" data-name="Camada 1" xmlns="http://www.w3.org/2000/svg" viewBox="0 0 749.22522 147.7038"><defs><style>.cls-1{fill:#5eb546;}.cls-1,.cls-2,.cls-3,.cls-4{fill-rule:evenodd;}.cls-2{fill:#0d8442;}.cls-3{fill:#55b147;}.cls-4,.cls-5{fill:#fff;}</style></defs><path class="cls-1" d="M20.1285,91.1597s28.9236,14.1882,30.7834,44.10989c10.3488-22.4618,7.3341-41.7521-14.354-56.7125C26.2349,71.4351,13.576,70.4628,1.635,58.4422A65.833,65.833,0,0,0,0,73.8513a73.86552,73.86552,0,0,0,45.5944,68.24211C42.5126,122.404,35.0552,103.8657,20.1285,91.1597Z" transform="translate(0.00494 0)"/><path class="cls-2" d="M90.919,73.5508A17.137,17.137,0,1,0,73.78161,90.6874h.00079A17.13751,17.13751,0,0,0,90.919,73.5508Z" transform="translate(0.00494 0)"/><path class="cls-2" d="M147.70351,73.8513a73.889,73.889,0,0,0-2.5889-19.3839c-6.1044,12.93571-26.6293,29.6-55.5565,48.4441-22.0499,14.3652-31.4235,28.9996-34.7131,42.3119a73.94256,73.94256,0,0,0,19.006,2.4804c1.83689,0,3.657-.0848,5.4598-.2441a70.94012,70.94012,0,0,1,7.5838-6.35361c27.1803-19.7861,31.3909-30.1538,31.3909-30.1538-.48841,2.17331-.4127,14.2642-24.082,33.3598C125.0932,133.9044,147.70351,101.4525,147.70351,73.8513Z" transform="translate(0.00494 0)"/><path class="cls-3" d="M101.0894,50.9754c.8702,9.904.1843,27.207-6.0503,37.17839,32.9375-19.5437,44.20831-39.9093,45.3836-46.3164A73.8568,73.8568,0,0,0,73.851,0c-1.74871,0-3.4764.0819-5.1953.2018C92.2065,16.0778,99.5703,35.4166,101.0894,50.9754Z" transform="translate(0.00494 0)"/><path class="cls-2" d="M47.6303,75.3752c-.1231-.7991-.2481-1.63391-.2481-1.8244A26.38227,26.38227,0,0,1,92.2226,54.6832C91.0057,23.4289,59.5675,4.6701,55.4088,2.321A74.00242,74.00242,0,0,0,4.2775,49.0606c5.4056,4.8461,11.2161,9.4031,22.8192,14.1588A77.37807,77.37807,0,0,1,47.6303,75.3752Z" transform="translate(0.00494 0)"/><path class="cls-4" d="M187.53758,24.014q10.536,0,16.17821,3.7049,5.642,3.7047,5.6421,12.1337,0,8.4966-5.7102,12.2695-5.70992,3.77265-16.31419,3.7726h-3.3304V71.6652H173.3987V25.2377a59.9435,59.9435,0,0,1,7.3414-.9516q3.8748-.2721,6.7975-.2721Zm.67971,9.0408q-1.15558,0-2.2773.068t-1.93691.1361V46.8541h3.3304q5.50635,0,8.293-1.4955,2.7873-1.4955,2.78709-5.5741a6.68787,6.68787,0,0,0-.7138-3.2629,5.4257,5.4257,0,0,0-2.0392-2.0733,9.18953,9.18953,0,0,0-3.229-1.0876A26.67927,26.67927,0,0,0,188.21729,33.0548Z" transform="translate(0.00494 0)"/><path class="cls-4" d="M238.65529,72.6168q-11.4879,0-17.5036-6.3896-6.01621-6.38985-6.016-18.1496a27.9074,27.9074,0,0,1,1.8354-10.4344,22.4872,22.4872,0,0,1,5.03011-7.7493,21.0381,21.0381,0,0,1,7.6133-4.7923,27.46417,27.46417,0,0,1,9.58479-1.6313,30.72465,30.72465,0,0,1,5.438.4419,35.263,35.263,0,0,1,4.2826,1.0196,21.14986,21.14986,0,0,1,3.0588,1.1895q1.2237.61185,1.7674.9518l-3.05881,8.5649a25.65333,25.65333,0,0,0-5.06441-1.9712,24.15814,24.15814,0,0,0-6.55969-.8158,14.48576,14.48576,0,0,0-4.7922.8158,10.83531,10.83531,0,0,0-4.1465,2.617,13.0358,13.0358,0,0,0-2.8891,4.6564,19.5339,19.5339,0,0,0-1.08771,6.9336,24.75956,24.75956,0,0,0,.71381,6.0837,12.90308,12.90308,0,0,0,2.3114,4.8603,11.09662,11.09662,0,0,0,4.18049,3.2289,14.88061,14.88061,0,0,0,6.2538,1.1894,28.482,28.482,0,0,0,4.1465-.2718,30.77885,30.77885,0,0,0,3.2627-.6457,17.12065,17.12065,0,0,0,2.5152-.8499q1.08763-.4758,1.9712-.88349l2.9231,8.4968a24.84268,24.84268,0,0,1-6.3218,2.4472A36.84449,36.84449,0,0,1,238.65529,72.6168Z" transform="translate(0.00494 0)"/><path class="cls-4" d="M299.0177,72.6168q-11.488,0-17.50369-6.3896-6.01606-6.38985-6.0159-18.1496a27.907,27.907,0,0,1,1.83539-10.4344,22.48434,22.48434,0,0,1,5.03009-7.7493,21.03718,21.03718,0,0,1,7.61331-4.7923,27.46374,27.46374,0,0,1,9.58481-1.6313,30.72255,30.72255,0,0,1,5.43789.4419,35.257,35.257,0,0,1,4.2826,1.0196,21.14683,21.14683,0,0,1,3.05889,1.1895q1.2237.61185,1.7674.9518l-3.0589,8.5649a25.65237,25.65237,0,0,0-5.0643-1.9712,24.15888,24.15888,0,0,0-6.55969-.8158,14.48639,14.48639,0,0,0-4.7923.8158,10.8362,10.8362,0,0,0-4.14651,2.617,13.03721,13.03721,0,0,0-2.889,4.6564,19.53435,19.53435,0,0,0-1.08771,6.9336,24.75656,24.75656,0,0,0,.71381,6.0837,12.90461,12.90461,0,0,0,2.31131,4.8603,11.09627,11.09627,0,0,0,4.1806,3.2289,14.87972,14.87972,0,0,0,6.25381,1.1894,28.48256,28.48256,0,0,0,4.14652-.2718,30.7827,30.7827,0,0,0,3.26269-.6457,17.1219,17.1219,0,0,0,2.51511-.8499q1.08765-.4758,1.97131-.88349l2.923,8.4968a24.8395,24.8395,0,0,1-6.32181,2.4472A36.84408,36.84408,0,0,1,299.0177,72.6168Z" transform="translate(0.00494 0)"/><path class="cls-4" d="M328.79108,48.0776a21.41319,21.41319,0,0,0,.84961,6.2538,14.28545,14.28545,0,0,0,2.44711,4.7922,10.83115,10.83115,0,0,0,3.90869,3.0929,13.38365,13.38365,0,0,0,10.5701,0,10.75642,10.75642,0,0,0,3.94269-3.0929,14.28217,14.28217,0,0,0,2.4472-4.7922,21.41667,21.41667,0,0,0,.84979-6.2538,21.76362,21.76362,0,0,0-.84979-6.2878,14.24518,14.24518,0,0,0-2.4472-4.8263,10.75631,10.75631,0,0,0-3.94269-3.0929,12.37441,12.37441,0,0,0-5.26791-1.0876,11.99779,11.99779,0,0,0-5.30219,1.1216,11.1715,11.1715,0,0,0-3.90869,3.1269,14.24623,14.24623,0,0,0-2.44711,4.8263A21.50493,21.50493,0,0,0,328.79108,48.0776Zm35.95919,0a28.98607,28.98607,0,0,1-1.80139,10.6381,21.87141,21.87141,0,0,1-4.92831,7.6813,20.23253,20.23253,0,0,1-7.4433,4.6565,27.04182,27.04182,0,0,1-9.27859,1.5633,26.35251,26.35251,0,0,1-9.1088-1.5633,20.94086,20.94086,0,0,1-7.47729-4.6565,21.772,21.772,0,0,1-5.03009-7.68131,28.50426,28.50426,0,0,1-1.83539-10.6381,27.59586,27.59586,0,0,1,1.9035-10.63819,22.665,22.665,0,0,1,5.13211-7.7153,21.10549,21.10549,0,0,1,7.4769-4.6905,25.67708,25.67708,0,0,1,8.93909-1.5633,26.35149,26.35149,0,0,1,9.10861,1.5633,20.7156,20.7156,0,0,1,7.47751,4.6905,22.12393,22.12393,0,0,1,5.03009,7.7153,28.505,28.505,0,0,1,1.83539,10.6382Z" transform="translate(0.00494 0)"/><path class="cls-4" d="M405.19559,71.6652q-4.5543-8.08888-9.85611-15.9743a162.34039,162.34039,0,0,0-11.28409-14.8867v30.861H373.587V24.558h8.6329q2.24335,2.24325,4.9624,5.506,2.719,3.26295,5.54,6.9675,2.8212,3.70485,5.60779,7.6814,2.78714,3.97635,5.2341,7.6473V24.558h10.53641V71.6652Z" transform="translate(0.00494 0)"/><path class="cls-4" d="M437.8241,63.576a15.28312,15.28312,0,0,0,3.7048-.3739,6.82607,6.82607,0,0,0,2.34509-1.0196,3.41131,3.41131,0,0,0,1.22351-1.5293,5.45236,5.45236,0,0,0,.33982-1.9715,4.55369,4.55369,0,0,0-2.175-3.8404,31.07689,31.07689,0,0,0-7.47751-3.297q-2.31089-.8154-4.62241-1.8694a17.04282,17.04282,0,0,1-4.1466-2.651,12.68338,12.68338,0,0,1-2.99082-3.8746,12.13415,12.13415,0,0,1-1.1557-5.5401,13.71719,13.71719,0,0,1,1.2237-5.8799,12.55177,12.55177,0,0,1,3.46679-4.4524,15.86748,15.86748,0,0,1,5.438-2.821,24.41034,24.41034,0,0,1,7.20542-.9856,28.80678,28.80678,0,0,1,13.93509,3.263l-3.0589,8.36079a28.95361,28.95361,0,0,0-4.38431-1.8012,18.9829,18.9829,0,0,0-5.8122-.7818q-3.80634,0-5.472,1.0537a3.55548,3.55548,0,0,0-1.66532,3.2289,3.72793,3.72793,0,0,0,.6117,2.175,5.94391,5.94391,0,0,0,1.7334,1.5976,15.25979,15.25979,0,0,0,2.58319,1.2915q1.46145.5778,3.22891,1.1897,3.6704,1.3593,6.38959,2.685a17.052,17.052,0,0,1,4.52038,3.0929,11.19562,11.19562,0,0,1,2.685,4.1465,16.65415,16.65415,0,0,1,.88379,5.7778q0,6.594-4.62241,10.2306T437.824,72.61679a38.56836,38.56836,0,0,1-5.64179-.3739,36.39778,36.39778,0,0,1-4.4527-.9175,24.81549,24.81549,0,0,1-5.67581-2.31111l2.99082-8.4291a26.66453,26.66453,0,0,0,5.20019,2.0732A26.97427,26.97427,0,0,0,437.8241,63.576Z" transform="translate(0.00494 0)"/><path class="cls-4" d="M482.95978,72.6168a23.72166,23.72166,0,0,1-8.56479-1.3935,15.94753,15.94753,0,0,1-5.94769-3.87471,15.47838,15.47838,0,0,1-3.4668-5.91389,24.29709,24.29709,0,0,1-1.12161-7.5793V24.558H474.463V52.9719a15.98033,15.98033,0,0,0,.64569,4.8603,8.955,8.955,0,0,0,1.7674,3.2626,6.30761,6.30761,0,0,0,2.719,1.8015,10.80382,10.80382,0,0,0,3.5008.5439,8.5726,8.5726,0,0,0,6.28781-2.3791q2.413-2.37947,2.41308-8.0892V24.558H502.401V53.8554a23.95393,23.95393,0,0,1-1.1557,7.6133,15.57809,15.57809,0,0,1-3.53448,5.948,15.853,15.853,0,0,1-6.05,3.8406A25.05612,25.05612,0,0,1,482.95978,72.6168Z" transform="translate(0.00494 0)"/><polygon class="cls-4" points="544.075 62.556 544.075 71.665 512.602 71.665 512.602 24.558 523.207 24.558 523.207 62.556 544.075 62.556"/><polygon class="cls-4" points="580.51 24.558 580.51 33.599 566.303 33.599 566.303 71.665 555.699 71.665 555.699 33.599 541.492 33.599 541.492 24.558 580.51 24.558"/><path class="cls-4" d="M594.644,48.0776a21.41487,21.41487,0,0,0,.84961,6.2538,14.28556,14.28556,0,0,0,2.44708,4.7922,10.8311,10.8311,0,0,0,3.9087,3.0929,13.38288,13.38288,0,0,0,10.56982,0,10.75541,10.75541,0,0,0,3.94269-3.0929,14.28162,14.28162,0,0,0,2.4472-4.7922,21.41432,21.41432,0,0,0,.84979-6.2538,21.76146,21.76146,0,0,0-.84979-6.2878,14.2459,14.2459,0,0,0-2.4472-4.8263,10.7553,10.7553,0,0,0-3.94269-3.0929,12.3727,12.3727,0,0,0-5.26758-1.0876,11.9976,11.9976,0,0,0-5.30218,1.1216,11.17154,11.17154,0,0,0-3.9087,3.1269,14.24706,14.24706,0,0,0-2.44708,4.8263,21.50768,21.50768,0,0,0-.84961,6.2198Zm35.95893,0a28.98566,28.98566,0,0,1-1.8014,10.6381,21.87175,21.87175,0,0,1-4.92828,7.6813,20.233,20.233,0,0,1-7.44318,4.6565,27.041,27.041,0,0,1-9.27838,1.5633,26.35254,26.35254,0,0,1-9.10882-1.5633,20.94328,20.94328,0,0,1-7.47748-4.6565,21.76911,21.76911,0,0,1-5.03009-7.68131,28.5043,28.5043,0,0,1-1.83551-10.6381,27.597,27.597,0,0,1,1.9035-10.63819,22.66545,22.66545,0,0,1,5.13208-7.7153,21.10949,21.10949,0,0,1,7.4773-4.6905,25.67612,25.67612,0,0,1,8.939-1.5633A26.34977,26.34977,0,0,1,616.26,25.0336a20.71389,20.71389,0,0,1,7.47748,4.6905,22.12086,22.12086,0,0,1,5.03009,7.7153A28.505,28.505,0,0,1,630.60291,48.0776Z" transform="translate(0.00494 0)"/><path class="cls-4" d="M653.239,24.014q10.604,0,16.24622,3.7729,5.642,3.77235,5.64178,11.7258a13.25157,13.25157,0,0,1-2.2771,8.0549,14.99666,14.99666,0,0,1-6.55957,4.8603q1.4274,1.7676,2.99079,4.0448,1.56345,2.27685,3.09289,4.7582,1.5294,2.481,2.9571,5.1661,1.42738,2.68515,2.65087,5.26821H666.13147q-1.30829-2.31135-2.6283-4.6902-1.34233-2.37931-2.73028-4.6224c-.9292-1.4956-1.8581-2.9118-2.76428-4.2486-.90662-1.3368-1.8241-2.5492-2.73041-3.6366h-5.23407V71.6652H639.43964V25.2377a60.06494,60.06494,0,0,1,7.17169-.9516Q650.316,24.014,653.239,24.014Zm.6117,9.0408q-1.15577,0-2.07331.068t-1.73327.1361V46.0383h2.99078q5.98215,0,8.56488-1.4955,2.583-1.4955,2.58319-5.0981a5.185,5.185,0,0,0-2.617-4.9284Q658.94895,33.055,653.85071,33.0548Z" transform="translate(0.00494 0)"/><rect class="cls-5" x="684.78412" y="24.558" width="10.60437" height="47.1072"/><path class="cls-4" d="M737.86847,71.6652c-.53241-1.6426-1.08771-3.3193-1.6994-5.0414-.60041-1.722-1.20081-3.4444-1.80139-5.1551H715.96875q-.88358,2.58316-1.79,5.16651c-.58911,1.7333-1.1441,3.3987-1.6654,5.03h-11.012q2.668-7.6131,5.04169-14.0709,2.39593-6.45782,4.67877-12.1677,2.27737-5.7099,4.4978-10.84221,2.20946-5.1321,4.5998-10.0264h10.04907q2.32782,4.8939,4.57709,10.0264,2.25988,5.1321,4.543,10.84221,2.29393,5.71005,4.67889,12.1677,2.396,6.45748,5.0528,14.0709ZM725.123,35.2301c-.2378.6798-.5777,1.62-1.0423,2.787-.45319,1.1784-.97418,2.5379-1.55219,4.0899-.57769,1.5409-1.2348,3.2402-1.94848,5.0984-.7251,1.8464-1.4502,3.7953-2.198,5.8345h13.47082c-.7138-2.0392-1.41619-3.9994-2.096-5.8572q-1.003-2.78715-1.92609-5.1098-.90051-2.3109-1.59729-4.0784C725.78009,36.8161,725.40619,35.8985,725.123,35.2301Z" transform="translate(0.00494 0)"/><path class="cls-4" d="M181.50119,88.3191q6.03778,0,9.271,2.1231t3.2332,6.9534q0,4.86885-3.272,7.031-3.27242,2.16225-9.34919,2.162h-1.9086v9.0375h-6.07691V89.0203a34.35686,34.35686,0,0,1,4.2069-.5453q2.22028-.15615,3.89559-.1559Zm.3895,5.1808q-.66239,0-1.3051.0392-.64291.0387-1.11.0779v7.79081h1.9086a10.34636,10.34636,0,0,0,4.7525-.857,3.29327,3.29327,0,0,0,1.59711-3.19429,3.83276,3.83276,0,0,0-.40911-1.8698,3.10936,3.10936,0,0,0-1.1687-1.1882,5.26345,5.26345,0,0,0-1.8502-.6231A15.25112,15.25112,0,0,0,181.89069,93.4999Z" transform="translate(0.00494 0)"/><path class="cls-4" d="M210.44409,100.2781q-.77893-.19471-1.8309-.409a11.30582,11.30582,0,0,0-2.2592-.2143,10.4378,10.4378,0,0,0-1.3051.0975,7.73565,7.73565,0,0,0-1.1492.214v15.6598h-5.8039V96.2269a34.80928,34.80928,0,0,1,3.68111-1.0324,21.2132,21.2132,0,0,1,4.733-.487q.46726,0,1.1296.0587.662.05819,1.32429.1556.66257.09733,1.32471.2339a6.228,6.228,0,0,1,1.12959.331Z" transform="translate(0.00494 0)"/><path class="cls-4" d="M233.31029,105.3422a13.32427,13.32427,0,0,1-.701,4.4212,9.60483,9.60483,0,0,1-2.0256,3.428,9.11716,9.11716,0,0,1-3.17481,2.2008,11.33057,11.33057,0,0,1-8.25849,0,9.11716,9.11716,0,0,1-3.17481-2.2008,10.08037,10.08037,0,0,1-2.0645-3.428,12.68406,12.68406,0,0,1-.7401-4.42121,12.233,12.233,0,0,1,.75971-4.4019,9.9815,9.9815,0,0,1,2.10361-3.3891,9.44074,9.44074,0,0,1,3.1941-2.18119,10.91979,10.91979,0,0,1,8.1025,0,9.2397,9.2397,0,0,1,3.1748,2.18119,9.90233,9.90233,0,0,1,2.0645,3.3891A12.522,12.522,0,0,1,233.31029,105.3422Zm-5.921,0a7.29794,7.29794,0,0,0-1.0712-4.2267,3.50314,3.50314,0,0,0-3.058-1.5386,3.55259,3.55259,0,0,0-3.0773,1.5386,7.1982,7.1982,0,0,0-1.09081,4.2267,7.38548,7.38548,0,0,0,1.09081,4.2653,3.52453,3.52453,0,0,0,3.0773,1.5778,3.47619,3.47619,0,0,0,3.058-1.5778,7.48856,7.48856,0,0,0,1.07122-4.2653Z" transform="translate(0.00494 0)"/><path class="cls-4" d="M235.88129,122.8326q-.54539,0-1.61661-.11679a9.62845,9.62845,0,0,1-2.006-.4286l.7789-4.7135a6.81828,6.81828,0,0,0,1.0712.2727,7.99379,7.99379,0,0,0,1.2272.078,2.12338,2.12338,0,0,0,1.9088-.8181,4.29025,4.29025,0,0,0,.5454-2.3763V95.1361h5.80389v19.7498q0,4.05135-1.9865,5.999a7.84455,7.84455,0,0,1-5.7263,1.9477Zm8.25819-33.6175a3.18634,3.18634,0,0,1-1.0321,2.51261,3.69569,3.69569,0,0,1-4.8693,0,3.57374,3.57374,0,0,1,0-5.0252,3.69567,3.69567,0,0,1,4.8693,0,3.18632,3.18632,0,0,1,1.03212,2.51259Z" transform="translate(0.00494 0)"/><path class="cls-4" d="M248.074,105.537a12.52839,12.52839,0,0,1,.8376-4.77189,10.22686,10.22686,0,0,1,2.20089-3.4086,9.1562,9.1562,0,0,1,3.1357-2.0645,9.82006,9.82006,0,0,1,3.64221-.7013,9.05176,9.05176,0,0,1,6.895,2.6685q2.532,2.66818,2.53189,7.8492,0,.5064-.03891,1.11029t-.07791,1.0712h-13.1664a3.85644,3.85644,0,0,0,1.675,2.8435,6.7319,6.7319,0,0,0,3.97329,1.0519,16.7702,16.7702,0,0,0,3.13571-.29229,11.831,11.831,0,0,0,2.5127-.7205l.7789,4.7134a8.0114,8.0114,0,0,1-1.2464.4675,16.27915,16.27915,0,0,1-1.7334.409q-.95444.1752-2.04519.29219a20.50961,20.50961,0,0,1-2.18149.1168,12.91348,12.91348,0,0,1-4.8107-.818,9.3724,9.3724,0,0,1-3.3891-2.24,8.89046,8.89046,0,0,1-1.9868-3.3695A13.35231,13.35231,0,0,1,248.074,105.537Zm13.63409-2.2204a5.99908,5.99908,0,0,0-.25339-1.44139,3.59051,3.59051,0,0,0-.6622-1.2464,3.5198,3.5198,0,0,0-1.12961-.896,3.67807,3.67807,0,0,0-1.69461-.3507,3.89284,3.89284,0,0,0-1.675.3311,3.46674,3.46674,0,0,0-1.1687.87651,3.92592,3.92592,0,0,0-.7205,1.2659,8.29931,8.29931,0,0,0-.37,1.461Z" transform="translate(0.00494 0)"/><path class="cls-4" d="M271.60208,90.0332l5.80429-.9349v6.03781h6.9729v4.8302h-6.9729v7.2066a5.73173,5.73173,0,0,0,.64292,2.9216,2.75851,2.75851,0,0,0,2.5903,1.0908,11.06845,11.06845,0,0,0,1.9284-.1755,9.932,9.932,0,0,0,1.81131-.4867l.81809,4.5187a16.54073,16.54073,0,0,1-2.3375.7402,13.62077,13.62077,0,0,1-3.15521.3115,10.38988,10.38988,0,0,1-3.9342-.64261,6.17024,6.17024,0,0,1-2.49311-1.79209,6.66911,6.66911,0,0,1-1.30511-2.785,16.45,16.45,0,0,1-.37021-3.623Z" transform="translate(0.00494 0)"/><path class="cls-4" d="M307.47879,105.3422a13.32087,13.32087,0,0,1-.701,4.4212,9.60512,9.60512,0,0,1-2.0256,3.428,9.11734,9.11734,0,0,1-3.17481,2.2008,11.32982,11.32982,0,0,1-8.25821,0,9.1173,9.1173,0,0,1-3.1748-2.2008,10.07868,10.07868,0,0,1-2.06452-3.428,12.6843,12.6843,0,0,1-.74011-4.42121,12.231,12.231,0,0,1,.75971-4.4019,9.98016,9.98016,0,0,1,2.1036-3.3891,9.44084,9.44084,0,0,1,3.1941-2.18119,10.91891,10.91891,0,0,1,8.1022,0,9.2398,9.2398,0,0,1,3.1748,2.18119,9.903,9.903,0,0,1,2.06452,3.3891A12.52174,12.52174,0,0,1,307.47879,105.3422Zm-5.921,0a7.29794,7.29794,0,0,0-1.0712-4.2267,3.50263,3.50263,0,0,0-3.05771-1.5386,3.5526,3.5526,0,0,0-3.0773,1.5386,7.19843,7.19843,0,0,0-1.09079,4.2267,7.3857,7.3857,0,0,0,1.09079,4.2653,3.52458,3.52458,0,0,0,3.0773,1.5778,3.47568,3.47568,0,0,0,3.05771-1.5778A7.48839,7.48839,0,0,0,301.5578,105.3422Z" transform="translate(0.00494 0)"/><path class="cls-4" d="M317.84058,111.458a5.79465,5.79465,0,0,0,2.25949-.3118,1.2037,1.2037,0,0,0,.6622-1.2076,1.47869,1.47869,0,0,0-.857-1.2268,16.28638,16.28638,0,0,0-2.6101-1.1883,26.80125,26.80125,0,0,1-2.47351-1.0517,7.2679,7.2679,0,0,1-1.88932-1.305,5.2792,5.2792,0,0,1-1.20761-1.8114,6.70533,6.70533,0,0,1-.42859-2.5319,5.47586,5.47586,0,0,1,2.14279-4.5578,9.3185,9.3185,0,0,1,5.88181-1.675,18.85738,18.85738,0,0,1,3.58389.3311,16.6616,16.6616,0,0,1,2.7269.7208l-1.01279,4.5185a21.30923,21.30923,0,0,0-2.20111-.6231,11.9486,11.9486,0,0,0-2.6683-.2727q-2.72672,0-2.7269,1.5191a1.56692,1.56692,0,0,0,.1171.6234,1.3291,1.3291,0,0,0,.4674.5258,6.50468,6.50468,0,0,0,.95441.5454,16.46547,16.46547,0,0,0,1.5387.64911,23.64467,23.64467,0,0,1,3.15521,1.3961,7.5542,7.5542,0,0,1,1.96728,1.4802,4.59534,4.59534,0,0,1,1.01279,1.7722,7.84271,7.84271,0,0,1,.292,2.253,5.20538,5.20538,0,0,1-2.27881,4.5902,11.39761,11.39761,0,0,1-6.4468,1.5516,18.19239,18.19239,0,0,1-7.05091-1.2466l.97391-4.7135a19.01517,19.01517,0,0,0,3.03851.9156A14.79133,14.79133,0,0,0,317.84058,111.458Z" transform="translate(0.00494 0)"/><path class="cls-4" d="M338.8371,108.4649a8.17345,8.17345,0,0,1,.42831-2.7074,8.70893,8.70893,0,0,1,1.1427-2.2138,8.94122,8.94122,0,0,1,1.6752-1.753,14.15506,14.15506,0,0,1,1.99961-1.3439,17.81058,17.81058,0,0,1-1.662-2.4474,5.70345,5.70345,0,0,1-.74011-2.8633,6.71991,6.71991,0,0,1,2.06451-5.2784,8.21646,8.21646,0,0,1,5.68741-1.85019,9.49,9.49,0,0,1,3.19409.487,6.62728,6.62728,0,0,1,2.27881,1.3244,5.52053,5.52053,0,0,1,1.383,1.9477,6.11184,6.11184,0,0,1,.4674,2.3955,7.00838,7.00838,0,0,1-1.3439,4.2268,11.44976,11.44976,0,0,1-3.41489,3.0968l4.38861,4.3432a13.96149,13.96149,0,0,0,.66871-1.9542,11.534,11.534,0,0,0,.40249-2.0775l4.8306.6234a14.49924,14.49924,0,0,1-.27271,1.6166q-.19486.8763-.487,1.7725c-.19479.5972-.41558,1.1945-.6622,1.7983a14.771,14.771,0,0,1-.805,1.6361,37.5338,37.5338,0,0,1,2.44119,3.0512,26.16047,26.16047,0,0,1,2.04489,3.3308h-5.94061c-.214-.3442-.50628-.76629-.87-1.2725a10.51491,10.51491,0,0,0-1.0904-1.30509,14.66318,14.66318,0,0,1-3.623,2.09059,12.23132,12.23132,0,0,1-4.6355.83761,13.23565,13.23565,0,0,1-4.56409-.68171,8.38814,8.38814,0,0,1-2.94119-1.753,6.11585,6.11585,0,0,1-1.57751-2.4086,8.07832,8.07832,0,0,1-.46741-2.66851Zm5.41449-.5842a3.42855,3.42855,0,0,0,.23379,1.2075,3.20233,3.20233,0,0,0,.75971,1.1427,4.07783,4.07783,0,0,0,1.3504.8569,5.31049,5.31049,0,0,0,1.9931.3311,8.54423,8.54423,0,0,0,2.86951-.4349,6.4183,6.4183,0,0,0,2.0517-1.1426l-6.2782-6.2328a7.73907,7.73907,0,0,0-1.0647.6559,5.48111,5.48111,0,0,0-.94791.91529,4.69331,4.69331,0,0,0-.69479,1.188A3.93222,3.93222,0,0,0,344.25159,107.8807Zm7.5571-13.4394a2.43,2.43,0,0,0-.5842-1.6035,2.40512,2.40512,0,0,0-1.9477-.701,2.45766,2.45766,0,0,0-1.9284.7594,2.834,2.834,0,0,0-.6814,1.9672,3.72078,3.72078,0,0,0,.5842,1.9672,8.82,8.82,0,0,0,1.50629,1.82441,8.4276,8.4276,0,0,0,2.14889-1.68151A3.56784,3.56784,0,0,0,351.80869,94.4413Z" transform="translate(0.00494 0)"/><path class="cls-4" d="M384.76428,110.9906a8.76617,8.76617,0,0,0,2.1229-.2143,3.91676,3.91676,0,0,0,1.3439-.5843,1.95732,1.95732,0,0,0,.70129-.8764,3.1276,3.1276,0,0,0,.19471-1.1299,2.60931,2.60931,0,0,0-1.24671-2.2008,17.80589,17.80589,0,0,0-4.28479-1.8893q-1.32454-.4674-2.649-1.07129a9.773,9.773,0,0,1-2.37631-1.519,7.26688,7.26688,0,0,1-1.7138-2.2207,6.9521,6.9521,0,0,1-.66221-3.1745,7.8621,7.8621,0,0,1,.701-3.3696,7.19591,7.19591,0,0,1,1.98679-2.5517,9.09586,9.09586,0,0,1,3.11639-1.6166,13.99279,13.99279,0,0,1,4.129-.5647,16.51269,16.51269,0,0,1,7.98581,1.8698l-1.753,4.7914a16.63091,16.63091,0,0,0-2.5126-1.0324,10.884,10.884,0,0,0-3.33042-.4479,6.111,6.111,0,0,0-3.136.6038,2.03727,2.03727,0,0,0-.95441,1.8504,2.13553,2.13553,0,0,0,.35059,1.2464,3.40968,3.40968,0,0,0,.99328.9153,8.73813,8.73813,0,0,0,1.4802.74019q.83761.3312,1.85049.6817,2.10342.77942,3.6618,1.53891a9.77731,9.77731,0,0,1,2.59031,1.7723,6.41841,6.41841,0,0,1,1.5386,2.37619,9.54636,9.54636,0,0,1,.50659,3.31121,7.03216,7.03216,0,0,1-2.649,5.8626q-2.649,2.08395-7.98551,2.084a22.11916,22.11916,0,0,1-3.23349-.2143,20.86186,20.86186,0,0,1-2.55139-.52581,14.21775,14.21775,0,0,1-3.2525-1.3243l1.7138-4.83059a15.2667,15.2667,0,0,0,2.98011,1.1883A15.46282,15.46282,0,0,0,384.76428,110.9906Z" transform="translate(0.00494 0)"/><path class="cls-4" d="M398.7099,105.537a12.52647,12.52647,0,0,1,.83771-4.77189,10.22538,10.22538,0,0,1,2.2008-3.4086,9.15634,9.15634,0,0,1,3.13571-2.0645,9.82012,9.82012,0,0,1,3.64222-.7013,9.0516,9.0516,0,0,1,6.895,2.6685q2.532,2.66818,2.53189,7.8492,0,.5064-.03879,1.11029-.03913.60377-.078,1.0712H404.67a3.85644,3.85644,0,0,0,1.675,2.8435,6.73215,6.73215,0,0,0,3.97339,1.0519,16.76985,16.76985,0,0,0,3.13559-.29229,11.83108,11.83108,0,0,0,2.51269-.7205l.7789,4.7134a8.01167,8.01167,0,0,1-1.24639.4675,16.283,16.283,0,0,1-1.73331.409q-.95457.1752-2.0452.29219a20.51449,20.51449,0,0,1-2.18161.1168,12.91354,12.91354,0,0,1-4.8107-.818,9.37265,9.37265,0,0,1-3.3891-2.24,8.89041,8.89041,0,0,1-1.98678-3.3695,13.35171,13.35171,0,0,1-.64261-4.2069Zm13.63409-2.2204a5.99956,5.99956,0,0,0-.25338-1.44139,3.59067,3.59067,0,0,0-.6622-1.2464,3.51991,3.51991,0,0,0-1.12961-.896,3.6781,3.6781,0,0,0-1.69461-.3507,3.892,3.892,0,0,0-1.6749.3311,3.46616,3.46616,0,0,0-1.16879.87651,3.9259,3.9259,0,0,0-.72049,1.2659,8.29931,8.29931,0,0,0-.37,1.461Z" transform="translate(0.00494 0)"/><path class="cls-4" d="M434.78128,100.2781q-.779-.19471-1.8309-.409a11.30579,11.30579,0,0,0-2.25919-.2143,10.43605,10.43605,0,0,0-1.305.0975,7.73284,7.73284,0,0,0-1.1492.214v15.6598h-5.80389V96.2269a34.81251,34.81251,0,0,1,3.681-1.0324,21.21314,21.21314,0,0,1,4.733-.487q.46737,0,1.12961.0587.6621.05819,1.3244.1556t1.32458.2339a6.22584,6.22584,0,0,1,1.12961.331Z" transform="translate(0.00494 0)"/><path class="cls-4" d="M445.682,115.6261q-1.99637-3.89535-4.051-9.1154-2.055-5.21968-3.8891-11.37461h6.15479q.38955,1.51922.92181,3.29161.52606,1.7727,1.09079,3.5838.57455,1.81138,1.13611,3.52549c.3768,1.14261.7532,2.1812,1.11691,3.1161q.50638-1.40235,1.097-3.1161.58465-1.71405,1.1492-3.52549c.37671-1.2075.74661-2.402,1.09729-3.5838q.52591-1.77227.91531-3.29161h6.0054q-1.8402,6.15466-3.88879,11.37461-2.04525,5.22016-4.0448,9.1154Z" transform="translate(0.00494 0)"/><path class="cls-4" d="M467.30807,115.6261h-5.804v-20.49h5.804Zm.54529-26.411a3.18631,3.18631,0,0,1-1.0321,2.51261,3.69568,3.69568,0,0,1-4.86929,0,3.57372,3.57372,0,0,1,0-5.0252,3.69566,3.69566,0,0,1,4.86929,0,3.18628,3.18628,0,0,1,1.03213,2.51259Z" transform="translate(0.00494 0)"/><path class="cls-4" d="M482.81158,117.1843a3.78827,3.78827,0,0,1,1.71412,1.48021,3.62157,3.62157,0,0,1,.4674,1.753,3.19183,3.19183,0,0,1-1.48019,2.8437,6.98253,6.98253,0,0,1-3.89539.9737,10.88168,10.88168,0,0,1-1.71411-.1364,16.15552,16.15552,0,0,1-1.7138-.3699l.701-3.3891q.273.07785.9935.2531a5.98544,5.98544,0,0,0,1.4216.1755,2.02726,2.02726,0,0,0,.95441-.21431.85773.85773,0,0,0,.44821-.75969,1.03838,1.03838,0,0,0-.37021-.85691,2.71678,2.71678,0,0,0-1.30511-.58419l-.46741-.11711a12.1803,12.1803,0,0,1,.42859-1.1492q.27255-.64245.54541-1.188a9.63281,9.63281,0,0,1-3.48639-1.3439,8.63572,8.63572,0,0,1-2.4151-2.3371,9.69531,9.69531,0,0,1-1.40259-3.136,14.90121,14.90121,0,0,1-.4479-3.7006,12.07653,12.07653,0,0,1,.72061-4.1876,9.80051,9.80051,0,0,1,5.3952-5.7459,10.92756,10.92756,0,0,1,4.4408-.85691,14.33288,14.33288,0,0,1,2.9996.2923,14.6137,14.6137,0,0,1,2.6489.8373l-1.2078,4.63581a14.57059,14.57059,0,0,0-1.79181-.54541,9.36077,9.36077,0,0,0-2.18149-.2338,4.59868,4.59868,0,0,0-3.837,1.597,6.5773,6.5773,0,0,0-1.2659,4.2072,6.80983,6.80983,0,0,0,1.1882,4.2848q1.18794,1.5192,4.1485,1.5194a14.239,14.239,0,0,0,2.25931-.1947,9.60554,9.60554,0,0,0,2.2203-.6234l.81812,4.7526a11.476,11.476,0,0,1-2.20081.6622,18.57072,18.57072,0,0,1-2.86331.35031q-.15555.3117-.2724.5845Q482.88976,116.98935,482.81158,117.1843Z" transform="translate(0.00494 0)"/><path class="cls-4" d="M510.43008,105.3422a13.32425,13.32425,0,0,1-.701,4.4212,9.60645,9.60645,0,0,1-2.02561,3.428,9.1173,9.1173,0,0,1-3.1748,2.2008,11.33054,11.33054,0,0,1-8.25852,0,9.11654,9.11654,0,0,1-3.1748-2.2008,10.07868,10.07868,0,0,1-2.06452-3.428,12.6843,12.6843,0,0,1-.74011-4.42121,12.23077,12.23077,0,0,1,.75971-4.4019,9.97885,9.97885,0,0,1,2.1036-3.3891A9.4409,9.4409,0,0,1,496.34814,95.37a10.91972,10.91972,0,0,1,8.10251,0,9.24081,9.24081,0,0,1,3.17481,2.18119,9.90282,9.90282,0,0,1,2.06451,3.3891A12.52151,12.52151,0,0,1,510.43008,105.3422Zm-5.921,0a7.29843,7.29843,0,0,0-1.07119-4.2267,3.50326,3.50326,0,0,0-3.058-1.5386,3.5526,3.5526,0,0,0-3.0773,1.5386,7.19835,7.19835,0,0,0-1.09079,4.2267,7.38562,7.38562,0,0,0,1.09079,4.2653,3.52457,3.52457,0,0,0,3.0773,1.5778,3.47628,3.47628,0,0,0,3.058-1.5778A7.48913,7.48913,0,0,0,504.50909,105.3422Z" transform="translate(0.00494 0)"/><path class="cls-4" d="M520.79187,111.458a5.79459,5.79459,0,0,0,2.25952-.3118,1.2037,1.2037,0,0,0,.66211-1.2076,1.47851,1.47851,0,0,0-.85687-1.2268,16.28688,16.28688,0,0,0-2.61011-1.1883,26.80708,26.80708,0,0,1-2.47351-1.0517,7.26673,7.26673,0,0,1-1.88928-1.305,5.27993,5.27993,0,0,1-1.20758-1.8114,6.70513,6.70513,0,0,1-.42859-2.5319,5.47605,5.47605,0,0,1,2.1427-4.5578,9.31869,9.31869,0,0,1,5.8819-1.675,18.85777,18.85777,0,0,1,3.58392.3311,16.66167,16.66167,0,0,1,2.72693.7208l-1.01282,4.5185a21.31277,21.31277,0,0,0-2.20111-.6231,11.94816,11.94816,0,0,0-2.66827-.2727q-2.72672,0-2.72693,1.5191a1.56764,1.56764,0,0,0,.11712.6234,1.328,1.328,0,0,0,.46741.5258,6.50468,6.50468,0,0,0,.95441.5454,16.45076,16.45076,0,0,0,1.53869.64911,23.64993,23.64993,0,0,1,3.15522,1.3961,7.5547,7.5547,0,0,1,1.96728,1.4802,4.59761,4.59761,0,0,1,1.01282,1.7722,7.84335,7.84335,0,0,1,.29187,2.253,5.20558,5.20558,0,0,1-2.27869,4.5902,11.398,11.398,0,0,1-6.4469,1.5516,18.19345,18.19345,0,0,1-7.0509-1.2466l.974-4.7135a19.01486,19.01486,0,0,0,3.03851.9156A14.79038,14.79038,0,0,0,520.79187,111.458Z" transform="translate(0.00494 0)"/><path class="cls-4" d="M561.655,115.6261c-.305-.9414-.62341-1.9024-.974-2.8891-.34381-.9868-.688-1.9738-1.0321-2.954H549.10522c-.33758.9867-.68182,1.9735-1.02587,2.9605-.33759.9933-.6557,1.9477-.95411,2.8826h-6.31079q1.529-4.36305,2.8891-8.0635,1.3733-3.701,2.68152-6.9729,1.305-3.2724,2.57727-6.2133,1.26618-2.94105,2.63593-5.7455h5.75891q1.33419,2.80455,2.62292,5.7455,1.29512,2.94105,2.60327,6.2133,1.3148,3.27225,2.68128,6.9729,1.37339,3.7005,2.89563,8.0635Zm-7.304-20.8795c-.13641.3895-.33111.9284-.59729,1.5971-.2597.6752-.5581,1.4544-.88952,2.34359-.33112.883-.70752,1.857-1.11658,2.9217-.41553,1.0582-.83112,2.175-1.2594,3.3435h7.7193c-.40912-1.1685-.81158-2.2918-1.20111-3.3565-.38287-1.06469-.75311-2.03869-1.10382-2.9279q-.51618-1.32449-.91529-2.3375C554.72766,95.6554,554.51337,95.1296,554.351,94.7466Z" transform="translate(0.00494 0)"/><path class="cls-4" d="M582.4953,104.7577a8.00451,8.00451,0,0,0-.72058-3.9733,2.67242,2.67242,0,0,0-2.47351-1.1684,11.27693,11.27693,0,0,0-1.12958.0584q-.58457.0582-1.12988.1363v15.8154h-5.8039V95.8374q.73975-.1947,1.7334-.4091.99316-.2142,2.10358-.3897,1.11016-.17522,2.27869-.2724,1.16849-.0978,2.2984-.09751a9.65554,9.65554,0,0,1,3.60308.56491,8.12018,8.12018,0,0,1,2.27881,1.3439,10.84837,10.84837,0,0,1,5.84333-1.9088,10.23638,10.23638,0,0,1,4.03167.6817,6.07772,6.07772,0,0,1,2.51258,1.9281A7.30207,7.30207,0,0,1,599.207,100.239a19.12559,19.12559,0,0,1,.35028,3.8177v11.5694h-5.8042V104.7577a8.0044,8.0044,0,0,0-.72058-3.9733A2.67242,2.67242,0,0,0,590.559,99.616a5.22344,5.22344,0,0,0-1.30511.23349,5.09553,5.09553,0,0,0-1.3827.5843,8.869,8.869,0,0,1,.35071,1.8893q.07773.99362.07758,2.1231v11.1799h-5.8042Z" transform="translate(0.00494 0)"/><path class="cls-4" d="M617.944,105.2252q0-5.60926-4.12927-5.6092a6.84919,6.84919,0,0,0-1.77252.23349,5.0555,5.0555,0,0,0-1.42182.5843v10.5568q.42857.0777,1.0907.1363.66257.0582,1.44153.05841a4.17044,4.17044,0,0,0,3.5838-1.6362A7.11077,7.11077,0,0,0,617.944,105.2252Zm5.921.1559a12.95553,12.95553,0,0,1-.72058,4.44069,9.37754,9.37754,0,0,1-2.084,3.3891,9.16027,9.16027,0,0,1-3.35028,2.162,12.5866,12.5866,0,0,1-4.51867.7594q-1.05148,0-2.20081-.09719t-2.25952-.2531q-1.11016-.15616-2.12292-.3702-1.01277-.21435-1.79181-.4479V86.3325l5.804-.9348V95.6035a10.88405,10.88405,0,0,1,2.02558-.6621,10.39954,10.39954,0,0,1,2.25952-.2339,9.25174,9.25174,0,0,1,3.8565.75969,7.55318,7.55318,0,0,1,2.80463,2.162,9.70934,9.70934,0,0,1,1.71411,3.3695A15.36651,15.36651,0,0,1,623.865,105.3811Z" transform="translate(0.00494 0)"/><path class="cls-4" d="M634.1488,115.6261h-5.804v-20.49h5.804Zm.54541-26.411a3.18656,3.18656,0,0,1-1.0321,2.51261,3.69581,3.69581,0,0,1-4.86939,0,3.57374,3.57374,0,0,1,0-5.0252,3.69581,3.69581,0,0,1,4.86939,0,3.1867,3.1867,0,0,1,1.032,2.51259Z" transform="translate(0.00494 0)"/><path class="cls-4" d="M638.62866,105.537a12.52824,12.52824,0,0,1,.83728-4.77189,10.2288,10.2288,0,0,1,2.20081-3.4086,9.15641,9.15641,0,0,1,3.13568-2.0645,9.82075,9.82075,0,0,1,3.64221-.7013,9.05141,9.05141,0,0,1,6.895,2.6685q2.53217,2.66818,2.53192,7.8492,0,.5064-.03882,1.11029-.03909.60377-.07788,1.0712H644.5885a3.85628,3.85628,0,0,0,1.675,2.8435,6.73167,6.73167,0,0,0,3.97333,1.0519,16.771,16.771,0,0,0,3.13568-.29229,11.82829,11.82829,0,0,0,2.51257-.7205l.779,4.7134a8.0114,8.0114,0,0,1-1.2464.4675,16.27782,16.27782,0,0,1-1.73339.409q-.95463.1752-2.04523.29219a20.5128,20.5128,0,0,1-2.18152.1168,12.91319,12.91319,0,0,1-4.81073-.818,9.37082,9.37082,0,0,1-3.3891-2.24,8.89037,8.89037,0,0,1-1.98682-3.3695,13.35185,13.35185,0,0,1-.64227-4.2069Zm13.63373-2.2204a5.98849,5.98849,0,0,0-.25342-1.44139,3.59173,3.59173,0,0,0-.66211-1.2464,3.52057,3.52057,0,0,0-1.12957-.896,3.67826,3.67826,0,0,0-1.69458-.3507,3.89251,3.89251,0,0,0-1.675.3311,3.46664,3.46664,0,0,0-1.1687.87651,3.92793,3.92793,0,0,0-.72058,1.2659,8.31018,8.31018,0,0,0-.36988,1.461Z" transform="translate(0.00494 0)"/><path class="cls-4" d="M662.3515,95.8374a32.37449,32.37449,0,0,1,3.81738-.7988,31.38237,31.38237,0,0,1,4.90821-.3699,11.95819,11.95819,0,0,1,4.34363.6817,6.52707,6.52707,0,0,1,2.74621,1.9281,7.51105,7.51105,0,0,1,1.4411,2.96051,15.7516,15.7516,0,0,1,.42859,3.8177v11.5694h-5.8042V104.7577a7.82262,7.82262,0,0,0-.74017-3.9733,3.0191,3.0191,0,0,0-2.76569-1.1684q-.62338,0-1.3244.0584-.70111.0582-1.24658.1363v15.8154h-5.804Z" transform="translate(0.00494 0)"/><path class="cls-4" d="M685.10071,90.0332l5.8042-.9349v6.03781h6.973v4.8302h-6.973v7.2066a5.7319,5.7319,0,0,0,.64288,2.9216,2.7585,2.7585,0,0,0,2.59027,1.0908,11.06865,11.06865,0,0,0,1.92841-.1755,9.9315,9.9315,0,0,0,1.8114-.4867l.818,4.5187a16.54026,16.54026,0,0,1-2.3374.7402,13.622,13.622,0,0,1-3.15527.3115,10.3899,10.3899,0,0,1-3.93421-.64261,6.169,6.169,0,0,1-2.493-1.79209,6.66651,6.66651,0,0,1-1.30511-2.785,16.45,16.45,0,0,1-.37018-3.623Z" transform="translate(0.00494 0)"/><path class="cls-4" d="M709.64191,111.5748q.85721,0,1.63617-.0389a11.35426,11.35426,0,0,0,1.24658-.117v-4.4017q-.35074-.07772-1.05188-.1559a11.748,11.748,0,0,0-1.28552-.07791,11.50465,11.50465,0,0,0-1.53858.09751,4.01909,4.01909,0,0,0-1.266.3699,2.17454,2.17454,0,0,0-.85687.7401,2.06291,2.06291,0,0,0-.31183,1.1688,1.991,1.991,0,0,0,.91559,1.8892A5.05673,5.05673,0,0,0,709.64191,111.5748Zm-.46741-16.9841a13.44575,13.44575,0,0,1,4.28509.5842,6.65409,6.65409,0,0,1,2.74622,1.6753,6.15275,6.15275,0,0,1,1.46069,2.64869,13.06466,13.06466,0,0,1,.42859,3.46711v12.07579q-1.24667.27255-3.467.6426a33.3145,33.3145,0,0,1-5.37567.37021,17.05049,17.05049,0,0,1-3.60309-.35061,7.823,7.823,0,0,1-2.78528-1.1492,5.25479,5.25479,0,0,1-1.7918-2.084,7.19333,7.19333,0,0,1-.6233-3.15519,5.97849,5.97849,0,0,1,.72052-3.0385,5.54672,5.54672,0,0,1,1.92823-1.9868,8.72409,8.72409,0,0,1,2.76568-1.0712,15.5136,15.5136,0,0,1,3.23322-.3311,18.36685,18.36685,0,0,1,2.00641.0975,8.9188,8.9188,0,0,1,1.42181.2531v-.5453a3.21192,3.21192,0,0,0-.896-2.3763,4.33819,4.33819,0,0,0-3.1164-.8961,19.85237,19.85237,0,0,0-2.92169.2143,12.54958,12.54958,0,0,0-2.493.6038l-.74018-4.6743q.50647-.156,1.2663-.3311.75925-.17566,1.6554-.3118t1.88928-.2336Q708.16166,94.59085,709.1745,94.5907Z" transform="translate(0.00494 0)"/><path class="cls-4" d="M729.1579,115.6261h-5.804v-20.49h5.804Zm.54541-26.411a3.1866,3.1866,0,0,1-1.03211,2.51261,3.6958,3.6958,0,0,1-4.86938,0,3.57372,3.57372,0,0,1,0-5.0252,3.6958,3.6958,0,0,1,4.86938,0A3.18656,3.18656,0,0,1,729.70331,89.2151Z" transform="translate(0.00494 0)"/><path class="cls-4" d="M740.49359,111.458a5.794,5.794,0,0,0,2.25952-.3118,1.2036,1.2036,0,0,0,.66217-1.2076,1.47847,1.47847,0,0,0-.85687-1.2268,16.2886,16.2886,0,0,0-2.61023-1.1883,26.82354,26.82354,0,0,1-2.47351-1.0517,7.26794,7.26794,0,0,1-1.88928-1.305,5.27854,5.27854,0,0,1-1.20752-1.8114,6.70513,6.70513,0,0,1-.42859-2.5319,5.47584,5.47584,0,0,1,2.1427-4.5578,9.3187,9.3187,0,0,1,5.8819-1.675,18.85652,18.85652,0,0,1,3.5838.3311,16.66209,16.66209,0,0,1,2.727.7208l-1.01288,4.5185a21.31277,21.31277,0,0,0-2.20111-.6231,11.94763,11.94763,0,0,0-2.66821-.2727q-2.72691,0-2.72693,1.5191a1.56868,1.56868,0,0,0,.117.6234,1.32906,1.32906,0,0,0,.46753.5258,6.49924,6.49924,0,0,0,.95441.5454,16.462,16.462,0,0,0,1.53857.64911,23.64683,23.64683,0,0,1,3.15528,1.3961,7.55336,7.55336,0,0,1,1.96722,1.4802,4.594,4.594,0,0,1,1.01282,1.7722,7.83917,7.83917,0,0,1,.292,2.253,5.20544,5.20544,0,0,1-2.27881,4.5902,11.39774,11.39774,0,0,1-6.44678,1.5516,18.19234,18.19234,0,0,1-7.0509-1.2466l.974-4.7135a19.01143,19.01143,0,0,0,3.03839.9156A14.79073,14.79073,0,0,0,740.49359,111.458Z" transform="translate(0.00494 0)"/></svg>